<?xml version="1.0" standalone="no"?>
<!DOCTYPE svg PUBLIC "-//W3C//DTD SVG 20010904//EN"
 "http://www.w3.org/TR/2001/REC-SVG-20010904/DTD/svg10.dtd">
<svg version="1.0" xmlns="http://www.w3.org/2000/svg"
 width="600.000000pt" height="400.000000pt" viewBox="0 0 600.000000 400.000000"
 preserveAspectRatio="xMidYMid meet">
<g transform="translate(0.000000,400.000000) scale(0.100000,-0.100000)"
fill="#000000" stroke="none">
<path d="M2820 3011 c-11 -8 21 -11 111 -11 69 0 151 -5 183 -11 73 -13 97 -6
31 10 -67 17 -305 25 -325 12z"/>
<path d="M2705 2991 c-70 -18 -96 -27 -167 -58 -36 -16 -42 -33 -12 -33 9 0
12 5 8 12 -5 8 -2 9 10 5 10 -4 19 -1 22 8 4 8 10 12 15 9 5 -3 9 -1 9 5 0 6
6 8 14 5 7 -3 21 3 31 12 14 15 20 15 37 5 11 -7 17 -8 14 -2 -5 8 13 19 36
22 4 0 21 4 37 9 19 5 33 4 41 -3 8 -9 10 -8 5 6 -8 20 -11 20 -100 -2z"/>
<path d="M2843 2975 c-18 -8 -33 -11 -33 -7 0 4 -5 -1 -11 -11 -7 -12 -17 -16
-31 -11 -14 4 -18 2 -14 -5 9 -14 43 -14 48 0 2 5 11 7 21 4 9 -4 14 -11 11
-16 -3 -5 6 -9 20 -9 13 0 33 -2 43 -5 10 -3 6 1 -10 8 l-27 13 39 17 c28 13
60 17 119 15 44 -2 75 0 69 4 -21 14 -160 8 -187 -7 -14 -8 -36 -14 -50 -14
-23 0 -23 1 8 14 17 8 32 17 32 20 0 8 -12 6 -47 -10z"/>
<path d="M3210 2970 c8 -6 31 -15 51 -20 42 -12 156 -74 170 -93 3 -5 9 -2 12
6 4 12 -13 26 -65 52 -85 44 -217 87 -168 55z"/>
<path d="M2765 2960 c3 -5 11 -10 16 -10 6 0 7 5 4 10 -3 6 -11 10 -16 10 -6
0 -7 -4 -4 -10z"/>
<path d="M3123 2944 c0 -8 9 -9 30 -3 44 12 46 20 6 18 -20 -2 -36 -8 -36 -15z"/>
<path d="M2641 2936 c-10 -12 -5 -14 28 -10 22 2 43 -1 46 -6 3 -6 18 -10 33
-10 26 0 26 0 -8 19 -20 11 -39 15 -44 10 -5 -4 -17 -4 -26 1 -13 7 -21 5 -29
-4z"/>
<path d="M2587 2915 c-15 -11 -16 -13 -2 -19 9 -3 18 1 22 10 8 21 1 25 -20 9z"/>
<path d="M2436 2875 c-146 -98 -270 -251 -324 -400 -30 -82 -49 -170 -34 -161
4 2 9 19 10 38 3 52 50 161 109 255 46 72 161 198 185 202 5 1 20 14 35 30 16
15 41 35 57 43 16 8 25 18 20 21 -5 3 -31 -10 -58 -28z"/>
<path d="M2608 2888 c-16 -16 -22 -18 -29 -7 -6 9 -9 10 -9 2 0 -6 5 -15 10
-18 16 -10 50 5 50 21 0 25 16 15 18 -12 1 -17 -2 -23 -10 -18 -7 5 -8 3 -3
-6 6 -10 -1 -12 -36 -7 -30 4 -39 3 -27 -4 9 -5 34 -10 56 -11 36 -1 39 -3 29
-20 -11 -17 -24 -22 -54 -21 -7 1 -13 -4 -13 -9 0 -6 -7 -7 -16 -4 -8 3 -12 2
-9 -3 3 -5 1 -12 -5 -16 -5 -3 -10 -10 -10 -15 0 -5 16 2 36 15 23 16 46 23
65 21 31 -4 36 3 17 22 -9 9 -8 12 4 12 9 0 23 11 32 25 19 29 31 25 80 -20
18 -17 34 -24 45 -19 13 5 11 9 -11 18 -21 9 -25 15 -17 23 19 19 1 35 -24 21
-20 -10 -21 -10 -8 6 17 20 13 25 -30 32 -86 15 -110 13 -131 -8z m82 -8 c-6
-11 -7 -20 -1 -20 5 0 12 7 15 16 5 13 9 14 21 4 11 -9 15 -9 15 -1 0 7 5 9
10 6 15 -9 1 -27 -16 -21 -8 3 -23 -3 -32 -12 -10 -10 -24 -16 -30 -14 -16 5
-15 49 1 55 23 10 28 7 17 -13z m104 -35 c-7 -16 -24 -21 -24 -6 0 8 7 13 27
20 1 1 0 -6 -3 -14z"/>
<path d="M4167 2886 c-31 -13 -69 -31 -83 -41 -14 -9 -83 -47 -154 -84 l-128
-68 -62 24 c-71 26 -70 26 -90 13 -12 -9 -7 -17 30 -50 40 -36 43 -41 28 -51
-23 -13 -23 -29 -1 -29 9 0 62 12 117 27 78 21 95 29 76 33 -14 4 -24 12 -23
18 2 7 -4 12 -13 12 -8 0 -12 5 -9 10 4 6 11 7 17 4 6 -4 13 -2 17 3 6 9 86
53 96 53 3 0 5 -4 5 -9 0 -5 -11 -12 -25 -15 -20 -5 -24 -10 -17 -24 5 -9 7
-23 4 -30 -3 -11 0 -12 16 -3 10 6 22 7 26 3 4 -3 4 1 0 11 -3 9 -11 14 -16
11 -6 -4 -5 3 2 15 6 12 15 19 21 15 5 -3 16 0 24 6 8 7 15 9 15 5 0 -4 7 -2
15 5 8 7 15 10 15 6 0 -3 9 3 20 14 11 11 28 20 38 20 15 1 15 2 -2 15 -11 8
-16 18 -12 22 4 4 12 0 17 -10 15 -25 53 -4 47 27 -3 16 0 23 11 23 9 0 18 -3
21 -6 3 -4 16 -11 29 -17 21 -9 29 -7 49 15 14 14 19 18 12 9 -7 -10 -9 -18
-4 -18 4 0 -1 -6 -11 -14 -11 -8 -23 -12 -27 -10 -5 3 -8 0 -8 -7 0 -7 -3 -9
-7 -6 -3 4 -21 -3 -39 -14 -19 -11 -39 -17 -45 -13 -7 4 -9 3 -6 -3 4 -6 0
-14 -9 -17 -22 -8 -26 -8 -19 4 3 6 1 10 -4 10 -6 0 -11 -8 -11 -17 0 -14 -2
-15 -9 -5 -7 11 -9 10 -15 -3 -3 -9 -11 -13 -17 -9 -7 4 -9 0 -5 -14 4 -11 2
-23 -3 -27 -7 -4 -8 1 -5 12 5 15 4 15 -4 3 -6 -8 -8 -18 -5 -23 3 -4 -3 -17
-13 -28 -9 -10 -13 -19 -8 -19 5 0 2 -6 -7 -13 -9 -7 -16 -16 -17 -22 0 -5 -6
-11 -13 -14 -8 -2 -10 2 -6 13 4 10 7 22 7 28 0 6 7 8 14 5 10 -4 13 -1 10 8
-8 19 -34 27 -39 12 -16 -41 -53 -182 -50 -186 10 -9 53 30 65 58 9 22 19 31
36 31 27 0 36 11 24 30 -8 13 -12 12 -25 -5 -18 -23 29 66 56 106 12 17 50 39
109 63 106 44 172 98 149 121 -8 8 -36 16 -64 20 -40 4 -62 0 -108 -19z m113
4 c0 -12 -35 -31 -44 -23 -11 11 -6 21 12 26 29 8 32 7 32 -3z m-110 -50 c0
-5 -7 -10 -15 -10 -8 0 -15 5 -15 10 0 6 7 10 15 10 8 0 15 -4 15 -10z m-75
-40 c-3 -5 -10 -10 -16 -10 -5 0 -9 5 -9 10 0 6 7 10 16 10 8 0 12 -4 9 -10z
m-41 -21 c-3 -5 -10 -7 -15 -3 -5 3 -7 10 -3 15 3 5 10 7 15 3 5 -3 7 -10 3
-15z m-34 -14 c0 -8 -4 -15 -10 -15 -5 0 -10 7 -10 15 0 8 5 15 10 15 6 0 10
-7 10 -15z m-265 -85 c8 -7 21 -10 30 -7 8 4 17 1 21 -5 5 -7 12 -5 21 7 7 11
13 13 13 7 0 -7 0 -15 0 -19 0 -5 -4 -9 -10 -9 -5 -1 -12 -2 -15 -3 -10 -2
-20 4 -17 12 1 5 -2 6 -8 2 -6 -3 -8 -10 -5 -15 7 -11 -42 -6 -53 5 -4 4 -1 5
6 1 6 -4 12 -3 12 2 0 6 -13 15 -30 21 -16 5 -30 12 -30 14 0 9 52 -2 65 -13z"/>
<path d="M3135 2890 c-3 -5 1 -10 9 -10 8 0 18 5 21 10 3 6 -1 10 -9 10 -8 0
-18 -4 -21 -10z"/>
<path d="M3806 2881 c-6 -8 101 -111 115 -111 3 0 30 13 60 29 34 19 48 32 39
35 -8 3 -48 16 -88 30 -76 27 -117 32 -126 17z m101 -38 c4 3 24 -4 43 -15 19
-10 27 -17 18 -14 -10 3 -18 1 -18 -4 0 -16 -40 -11 -46 5 -4 8 -11 12 -17 8
-6 -3 -7 -1 -3 5 4 7 1 12 -9 12 -9 0 -13 5 -10 10 5 8 11 7 20 0 8 -7 18 -10
22 -7z"/>
<path d="M3920 2820 c-9 -6 -10 -10 -3 -10 6 0 15 5 18 10 8 12 4 12 -15 0z"/>
<path d="M2908 2863 c7 -3 16 -2 19 1 4 3 -2 6 -13 5 -11 0 -14 -3 -6 -6z"/>
<path d="M3110 2859 c-12 -9 -12 -10 3 -5 12 4 17 2 15 -6 -3 -7 -11 -13 -19
-14 -41 -3 -49 -5 -61 -18 -8 -8 -23 -16 -34 -19 -14 -3 -11 -5 9 -6 16 -1 30
5 33 14 4 8 18 15 33 15 33 0 67 23 57 38 -9 15 -17 15 -36 1z"/>
<path d="M2908 2843 c6 -2 18 -2 25 0 6 3 1 5 -13 5 -14 0 -19 -2 -12 -5z"/>
<path d="M3400 2834 c0 -8 5 -12 10 -9 6 4 8 11 5 16 -9 14 -15 11 -15 -7z"/>
<path d="M3763 2835 c0 -8 4 -12 9 -9 5 3 6 10 3 15 -9 13 -12 11 -12 -6z"/>
<path d="M2900 2814 c0 -36 23 -82 43 -88 12 -3 24 -1 25 4 2 6 11 17 19 26 8
8 12 18 8 22 -4 4 -9 3 -12 -3 -12 -32 -20 -37 -43 -25 -14 8 -20 18 -17 30 3
11 -1 24 -9 31 -8 6 -14 8 -14 3z"/>
<path d="M2750 2801 c0 -5 -9 -7 -20 -4 -11 3 -20 0 -20 -6 0 -6 5 -11 12 -11
6 0 19 -7 28 -15 10 -9 25 -13 34 -9 17 7 18 28 1 22 -6 -2 -9 -6 -8 -10 2 -4
-4 -5 -12 -2 -11 5 -12 11 -4 25 6 13 6 19 -1 19 -5 0 -10 -4 -10 -9z"/>
<path d="M3407 2791 c-4 -17 -3 -21 5 -13 5 5 8 16 6 23 -3 8 -7 3 -11 -10z"/>
<path d="M3528 2798 c5 -5 16 -8 23 -6 8 3 3 7 -10 11 -17 4 -21 3 -13 -5z"/>
<path d="M3458 2793 c7 -3 16 -2 19 1 4 3 -2 6 -13 5 -11 0 -14 -3 -6 -6z"/>
<path d="M2357 2763 c-11 -13 -20 -30 -21 -36 -1 -7 -23 -55 -48 -107 -46 -95
-68 -170 -49 -170 5 0 7 -9 4 -20 -7 -26 6 -110 17 -110 5 0 4 15 -1 32 -5 18
-9 41 -9 52 0 15 3 16 15 6 19 -16 19 -10 0 26 -8 16 -15 41 -15 55 0 28 53
133 63 123 3 -3 3 3 1 14 -3 10 1 26 10 34 8 9 18 27 22 42 3 14 11 23 17 19
6 -3 7 -1 3 5 -4 6 -2 21 4 33 16 30 8 31 -13 2z"/>
<path d="M3144 2775 c16 -16 35 -19 60 -9 31 12 16 24 -30 24 -40 0 -44 -2
-30 -15z"/>
<path d="M3446 2765 c4 -8 8 -15 10 -15 2 0 4 7 4 15 0 8 -4 15 -10 15 -5 0
-7 -7 -4 -15z"/>
<path d="M3480 2764 c1 -13 29 -48 34 -43 2 2 -4 15 -15 28 -10 13 -19 19 -19
15z"/>
<path d="M2675 2719 c-5 -29 -13 -43 -26 -46 -12 -3 -19 -14 -19 -29 0 -13 1
-24 3 -24 10 0 49 66 52 87 5 44 45 58 45 15 0 -14 2 -15 10 -2 12 19 -6 40
-35 40 -19 0 -24 -7 -30 -41z"/>
<path d="M3381 2748 c1 -31 14 -47 29 -38 10 7 11 10 3 10 -7 0 -13 6 -13 14
0 8 -4 18 -10 21 -5 3 -10 0 -9 -7z"/>
<path d="M3590 2756 c0 -2 8 -10 18 -17 15 -13 16 -12 3 4 -13 16 -21 21 -21
13z"/>
<path d="M3450 2725 c7 -8 17 -12 22 -9 6 4 5 10 -3 15 -22 14 -33 10 -19 -6z"/>
<path d="M2760 2709 l-25 -21 30 7 c24 5 27 4 18 -6 -10 -10 -8 -16 8 -30 27
-23 15 -42 -23 -37 -16 3 -31 1 -34 -4 -8 -13 61 -9 74 4 20 20 15 -12 -5 -35
-17 -19 -17 -20 3 -15 12 3 29 1 38 -4 10 -6 16 -5 16 2 0 6 -7 13 -16 17 -11
4 -14 14 -10 33 4 22 0 29 -20 39 -14 6 -23 15 -20 20 4 5 3 18 -1 29 l-8 21
-25 -20z"/>
<path d="M4025 2719 c-4 -6 -5 -12 -2 -15 2 -3 7 2 10 11 7 17 1 20 -8 4z"/>
<path d="M2542 2700 c0 -14 2 -19 5 -12 2 6 2 18 0 25 -3 6 -5 1 -5 -13z"/>
<path d="M3903 2708 c-23 -30 -22 -36 6 -40 24 -4 28 -1 27 21 -1 28 -18 38
-33 19z"/>
<path d="M3305 2700 c-4 -6 1 -20 12 -32 10 -11 17 -29 15 -39 -3 -15 3 -19
22 -19 17 0 26 6 26 16 0 11 -6 14 -22 9 -13 -3 -18 -3 -12 2 7 5 3 19 -12 41
-14 20 -25 28 -29 22z"/>
<path d="M4125 2701 c-3 -5 -2 -12 3 -15 5 -3 9 1 9 9 0 17 -3 19 -12 6z"/>
<path d="M2560 2693 c0 -6 7 -16 15 -23 18 -15 20 -34 3 -24 -7 4 -4 -2 6 -14
11 -12 22 -20 25 -17 3 4 -1 10 -8 14 -9 6 -10 11 -2 15 6 4 11 14 11 23 0 9
-3 13 -7 10 -3 -4 -15 0 -25 10 -10 9 -18 11 -18 6z"/>
<path d="M3456 2691 c-4 -5 -2 -12 3 -15 5 -4 12 -2 15 3 4 5 2 12 -3 15 -5 4
-12 2 -15 -3z"/>
<path d="M3606 2692 c-3 -4 4 -9 15 -9 23 -2 25 3 4 10 -8 4 -16 3 -19 -1z"/>
<path d="M3426 2665 c8 -37 10 -39 17 -23 2 8 -2 23 -10 33 -13 19 -14 18 -7
-10z"/>
<path d="M2458 2657 c-3 -19 -2 -25 4 -19 6 6 8 18 6 28 -3 14 -5 12 -10 -9z"/>
<path d="M4066 2655 c-16 -25 -16 -25 13 -25 33 0 44 10 35 34 -9 23 -29 20
-48 -9z"/>
<path d="M3287 2653 c-12 -11 -7 -30 7 -30 8 0 14 9 13 19 -1 19 -9 23 -20 11z"/>
<path d="M3480 2650 c-8 -5 -10 -10 -5 -10 6 0 17 5 25 10 8 5 11 10 5 10 -5
0 -17 -5 -25 -10z"/>
<path d="M3405 2640 c-3 -5 -1 -10 4 -10 6 0 11 5 11 10 0 6 -2 10 -4 10 -3 0
-8 -4 -11 -10z"/>
<path d="M3860 2615 c-19 -7 -156 -53 -305 -100 -455 -146 -840 -294 -1110
-426 -204 -99 -325 -174 -325 -201 0 -16 65 -8 98 12 21 13 50 20 82 20 l50 0
0 -220 0 -220 50 0 50 0 0 220 0 220 85 0 85 0 0 46 0 45 -132 -1 c-169 -2
-168 -2 -138 15 16 9 29 10 37 4 7 -7 14 -6 19 2 5 8 3 9 -7 4 -12 -8 -12 -6
0 8 7 9 19 17 25 17 7 0 7 -3 1 -8 -11 -8 -18 -32 -10 -32 3 0 64 30 136 66
269 134 675 299 1088 441 224 77 292 103 266 102 -5 0 -26 -6 -45 -14z m-1350
-519 c0 -2 -7 -7 -16 -10 -8 -3 -12 -2 -9 4 6 10 25 14 25 6z m-110 -114 c0
-4 46 -6 102 -4 72 2 98 -1 88 -8 -11 -7 -11 -10 -2 -10 7 0 10 -5 7 -10 -4
-6 -11 -7 -18 -3 -18 11 -121 3 -135 -11 -10 -10 -14 -63 -15 -217 -2 -204 -2
-204 -24 -205 -26 -2 -24 -21 -23 246 0 85 -4 161 -8 168 -11 17 -83 34 -97
23 -5 -5 -18 -8 -27 -8 -14 0 -15 3 -6 14 6 8 16 12 22 10 6 -2 16 1 22 7 11
12 114 19 114 8z m-180 -46 c0 -2 -8 -10 -17 -17 -16 -13 -17 -12 -4 4 13 16
21 21 21 13z"/>
<path d="M2308 1963 c7 -3 16 -2 19 1 4 3 -2 6 -13 5 -11 0 -14 -3 -6 -6z"/>
<path d="M2512 2603 c-18 -8 -31 -17 -29 -19 2 -2 21 5 43 16 21 10 35 19 29
19 -5 0 -25 -7 -43 -16z"/>
<path d="M3398 2613 c7 -3 16 -2 19 1 4 3 -2 6 -13 5 -11 0 -14 -3 -6 -6z"/>
<path d="M2554 2582 c1 -10 -7 -16 -21 -17 -13 0 -22 -2 -22 -5 0 -3 -4 -17
-10 -32 -6 -16 -8 -28 -5 -28 3 0 10 14 15 30 6 17 15 30 20 30 12 0 11 -7 -1
-31 -6 -10 -7 -19 -3 -19 15 0 28 15 31 35 2 11 8 22 13 23 13 5 11 19 -5 25
-8 3 -13 -1 -12 -11z"/>
<path d="M2717 2584 c-3 -4 -2 -14 3 -24 5 -10 6 -20 3 -24 -9 -9 0 -8 35 5
34 12 35 31 2 22 -14 -4 -20 0 -20 11 0 16 -11 21 -23 10z"/>
<path d="M3340 2586 c0 -2 7 -9 15 -16 12 -10 15 -10 15 4 0 9 -7 16 -15 16
-8 0 -15 -2 -15 -4z"/>
<path d="M3580 2564 c-47 -14 -195 -56 -330 -94 -458 -130 -776 -244 -1015
-363 -117 -58 -221 -129 -230 -156 -12 -40 25 -71 85 -71 22 1 23 2 8 11 -30
17 -20 45 28 87 28 23 42 42 35 46 -5 4 -16 -2 -22 -13 -7 -10 -18 -17 -25
-14 -7 2 -15 -5 -19 -16 -3 -12 -11 -18 -17 -15 -7 4 -8 2 -4 -4 4 -7 2 -12
-5 -12 -7 0 -9 -10 -7 -24 4 -21 2 -23 -16 -16 -24 8 -29 45 -6 45 9 0 14 8
12 19 -2 11 1 15 7 11 6 -3 14 1 17 9 3 9 10 13 15 10 5 -3 9 0 9 7 0 7 3 9 7
6 3 -4 21 5 40 19 18 14 33 20 33 15 0 -6 -5 -11 -12 -11 -9 0 -9 -3 -1 -11 9
-9 23 -5 55 14 236 138 658 300 1183 455 278 83 301 90 280 90 -11 0 -58 -11
-105 -24z m-1135 -384 c-3 -5 -12 -10 -18 -10 -7 0 -6 4 3 10 19 12 23 12 15
0z m-70 -40 c-3 -5 -16 -10 -28 -9 -20 1 -20 2 3 9 14 4 26 8 28 9 2 1 0 -3
-3 -9z m-135 -64 c-37 -26 -52 -27 -27 -2 8 8 17 12 21 9 3 -4 6 -1 6 5 0 7 8
12 17 12 12 0 6 -8 -17 -24z"/>
<path d="M2586 2544 c-11 -8 -16 -14 -10 -14 13 0 39 18 34 24 -3 2 -14 -2
-24 -10z"/>
<path d="M2677 2549 c-9 -5 -21 -8 -26 -5 -5 3 -8 -2 -7 -12 1 -11 -7 -18 -24
-19 l-25 -2 25 8 c21 8 22 9 5 10 -11 0 -26 -3 -33 -8 -11 -7 -11 -9 2 -14 10
-4 13 -13 10 -24 -5 -17 -5 -17 9 0 8 9 18 17 23 17 5 1 25 14 44 30 34 29 32
39 -3 19z"/>
<path d="M3390 2540 c-13 -9 -13 -10 0 -9 8 0 24 4 35 9 l20 9 -20 0 c-11 0
-27 -4 -35 -9z"/>
<path d="M3308 2513 c7 -3 16 -2 19 1 4 3 -2 6 -13 5 -11 0 -14 -3 -6 -6z"/>
<path d="M2567 2499 c7 -7 15 -10 18 -7 3 3 -2 9 -12 12 -14 6 -15 5 -6 -5z"/>
<path d="M3575 2480 c-3 -6 1 -7 9 -4 18 7 21 14 7 14 -6 0 -13 -4 -16 -10z"/>
<path d="M3680 2480 c8 -5 20 -10 25 -10 6 0 3 5 -5 10 -8 5 -19 10 -25 10 -5
0 -3 -5 5 -10z"/>
<path d="M3791 2474 c0 -11 3 -14 6 -6 3 7 2 16 -1 19 -3 4 -6 -2 -5 -13z"/>
<path d="M2566 2456 c5 -12 0 -19 -14 -23 -12 -3 -24 -13 -27 -22 -4 -12 -19
-16 -70 -17 -76 -2 -93 -13 -101 -65 -4 -22 -11 -39 -16 -39 -5 0 -2 -7 6 -16
9 -8 16 -21 16 -27 0 -7 -7 -4 -14 6 -7 9 -18 17 -24 17 -15 0 -25 43 -17 72
4 16 3 19 -3 9 -8 -11 -12 -10 -22 5 -10 17 -11 16 -5 -6 4 -14 9 -36 12 -50
7 -32 50 -70 79 -70 13 0 26 -4 29 -10 12 -19 32 -10 50 25 22 39 11 62 -12
28 -21 -31 -59 -30 -67 1 -14 58 21 117 61 102 9 -4 21 -2 27 3 14 11 68 2 60
-10 -8 -13 6 -50 16 -44 5 3 6 20 3 39 -5 30 -1 35 31 55 20 13 36 28 36 33 0
6 -3 8 -7 5 -3 -4 -12 -2 -20 5 -11 8 -12 7 -7 -6z m-131 -216 c-3 -5 -14 -10
-23 -9 -14 0 -13 2 3 9 27 11 27 11 20 0z"/>
<path d="M3533 2455 c-8 -9 -9 -16 -3 -20 6 -3 13 1 16 10 9 21 2 26 -13 10z"/>
<path d="M3590 2458 c0 -9 5 -20 10 -23 13 -8 13 5 0 25 -8 13 -10 13 -10 -2z"/>
<path d="M3645 2440 c3 -5 11 -10 16 -10 6 0 7 5 4 10 -3 6 -11 10 -16 10 -6
0 -7 -4 -4 -10z"/>
<path d="M3395 2415 c-25 -12 -26 -14 -5 -9 14 4 29 10 35 15 12 12 5 11 -30
-6z"/>
<path d="M3448 2423 c7 -3 16 -2 19 1 4 3 -2 6 -13 5 -11 0 -14 -3 -6 -6z"/>
<path d="M3712 2400 c0 -19 2 -27 5 -17 2 9 2 25 0 35 -3 9 -5 1 -5 -18z"/>
<path d="M3820 2416 c0 -8 4 -17 9 -20 5 -4 7 3 4 14 -6 23 -13 26 -13 6z"/>
<path d="M3330 2385 c-6 -8 -10 -22 -8 -32 3 -14 7 -11 20 15 17 33 10 43 -12
17z"/>
<path d="M2268 2383 c7 -3 16 -2 19 1 4 3 -2 6 -13 5 -11 0 -14 -3 -6 -6z"/>
<path d="M3520 2383 c0 -5 11 -13 25 -20 29 -13 33 -6 8 13 -20 15 -33 18 -33
7z"/>
<path d="M3596 2364 c-8 -21 -8 -24 5 -24 5 0 7 5 4 10 -3 6 -1 10 4 10 6 0
11 5 11 10 0 16 -17 12 -24 -6z"/>
<path d="M3842 2370 c0 -8 4 -26 8 -40 6 -20 8 -21 8 -5 0 11 -3 29 -8 40 -5
12 -8 14 -8 5z"/>
<path d="M3640 2360 c8 -5 22 -9 30 -9 10 0 8 3 -5 9 -27 12 -43 12 -25 0z"/>
<path d="M3826 2337 c3 -10 9 -15 12 -12 3 3 0 11 -7 18 -10 9 -11 8 -5 -6z"/>
<path d="M3720 2335 c0 -5 5 -17 10 -25 5 -8 10 -10 10 -5 0 6 -5 17 -10 25
-5 8 -10 11 -10 5z"/>
<path d="M3274 2298 c-24 -45 -24 -128 -2 -150 10 -10 18 -14 18 -9 0 6 -4 13
-10 16 -5 3 -10 33 -10 66 0 50 4 64 25 84 16 17 19 25 10 25 -8 0 -22 -15
-31 -32z"/>
<path d="M3703 2301 c0 -11 5 -18 9 -15 4 3 5 11 1 19 -7 21 -12 19 -10 -4z"/>
<path d="M2486 2291 c-3 -4 7 -8 22 -8 15 0 38 -3 52 -7 l25 -7 -25 15 c-28
17 -66 21 -74 7z"/>
<path d="M3752 2280 c0 -14 2 -19 5 -12 2 6 2 18 0 25 -3 6 -5 1 -5 -13z"/>
<path d="M3861 2199 c-1 -95 -15 -175 -45 -264 -4 -11 0 -8 8 7 35 60 62 245
47 318 -8 39 -9 31 -10 -61z"/>
<path d="M3724 2258 c6 -33 26 -72 33 -64 3 3 1 12 -6 20 -6 8 -14 24 -16 36
-2 13 -7 25 -10 29 -4 3 -4 -6 -1 -21z"/>
<path d="M3773 2223 c11 -20 13 -34 7 -38 -6 -3 -10 -11 -10 -16 0 -6 7 -3 16
5 17 18 12 47 -13 68 -15 12 -15 10 0 -19z"/>
<path d="M3816 2224 c-9 -24 -7 -27 9 -10 17 17 19 26 6 26 -5 0 -12 -7 -15
-16z"/>
<path d="M3813 2163 c-15 -5 -18 -33 -4 -33 8 0 25 30 19 35 -2 1 -9 0 -15 -2z"/>
<path d="M2671 2121 c-11 -7 -9 -12 10 -22 23 -12 23 -11 9 6 -14 17 -13 18 3
12 11 -4 16 -3 12 3 -8 12 -16 12 -34 1z"/>
<path d="M2727 2123 c-11 -10 -8 -25 4 -18 5 4 18 -2 28 -14 10 -11 21 -18 25
-14 3 3 6 1 6 -6 0 -7 4 -10 9 -7 15 10 42 -5 52 -28 8 -20 9 -19 6 4 -1 18
-11 28 -34 35 -18 6 -44 21 -58 33 -28 24 -29 25 -38 15z"/>
<path d="M3300 2110 c0 -5 5 -10 10 -10 6 0 10 5 10 10 0 6 -4 10 -10 10 -5 0
-10 -4 -10 -10z"/>
<path d="M3796 2095 c-3 -8 -1 -15 4 -15 6 0 10 7 10 15 0 8 -2 15 -4 15 -2 0
-6 -7 -10 -15z"/>
<path d="M2608 2089 c-10 -5 -18 -17 -18 -24 0 -8 -4 -15 -10 -15 -20 0 -9
-16 12 -17 18 -2 20 0 8 7 -12 8 -11 10 5 10 16 0 17 2 5 10 -13 8 -12 11 5
24 23 18 18 20 -7 5z"/>
<path d="M3435 2090 c-3 -6 1 -7 9 -4 18 7 21 14 7 14 -6 0 -13 -4 -16 -10z"/>
<path d="M3528 2033 c7 -3 16 -2 19 1 4 3 -2 6 -13 5 -11 0 -14 -3 -6 -6z"/>
<path d="M3756 2025 c-9 -26 -7 -32 5 -12 6 10 9 21 6 23 -2 3 -7 -2 -11 -11z"/>
<path d="M1855 1999 c-2 -3 -47 -103 -100 -223 -52 -120 -104 -235 -115 -257
l-20 -39 53 0 54 0 26 60 26 61 131 -3 132 -3 23 -55 23 -55 51 -3 c28 -2 51
-1 51 1 0 7 -128 296 -170 382 -21 44 -43 94 -50 111 -10 29 -14 31 -62 30
-27 -1 -51 -3 -53 -7z m55 -29 c0 -5 5 -10 11 -10 5 0 7 5 4 10 -3 6 -2 10 3
10 13 0 26 -30 23 -53 -1 -9 5 -20 14 -23 10 -4 14 -13 10 -22 -3 -9 -3 -13 1
-9 10 10 36 -31 28 -45 -4 -6 -3 -8 3 -5 15 9 24 -18 11 -31 -7 -7 -6 -16 1
-29 11 -16 11 -16 6 5 -4 12 -4 22 0 22 7 0 29 -52 26 -64 -1 -5 5 -16 14 -26
8 -9 12 -20 8 -23 -3 -4 0 -7 8 -7 10 -1 8 -5 -6 -16 -20 -16 -20 -16 3 -9 16
5 22 2 23 -9 2 -25 4 -28 27 -73 19 -36 20 -42 6 -54 -18 -14 -26 -7 -44 41
-17 43 -40 74 -60 79 -8 2 -54 2 -102 2 -56 -1 -88 2 -88 8 0 6 -5 11 -11 11
-5 0 -7 -4 -4 -10 3 -6 -4 -10 -18 -10 -43 0 -80 -47 -86 -108 0 -7 -6 -10
-11 -7 -6 4 -8 11 -5 16 10 15 -2 10 -16 -8 -12 -14 -12 -16 0 -8 10 5 12 4 7
-4 -9 -14 -26 -5 -26 13 0 7 11 29 24 49 13 19 21 39 18 43 -4 5 0 3 10 -4 12
-10 18 -10 24 -1 4 7 3 9 -3 6 -19 -12 -22 20 -6 44 9 12 11 19 5 15 -8 -5
-10 -2 -6 9 5 11 10 13 19 5 9 -8 11 -4 7 15 -4 22 19 86 38 105 3 3 11 16 18
29 10 17 10 21 1 16 -13 -8 -6 7 15 34 6 7 11 19 12 25 4 39 4 39 19 26 9 -7
18 -10 22 -6 3 3 1 6 -5 6 -16 0 -15 27 1 33 20 9 27 8 27 -3z"/>
<path d="M1875 1909 c8 -11 -6 -40 -16 -33 -5 3 -6 -1 -3 -9 3 -8 -4 -32 -15
-53 -11 -22 -29 -61 -40 -87 l-21 -48 46 -19 c52 -23 70 -25 80 -9 4 8 29 10
73 7 36 -3 58 -3 48 -1 -18 5 -18 5 0 25 13 15 15 22 6 25 -7 3 -13 12 -13 20
0 9 -14 38 -31 66 -17 28 -24 47 -16 44 7 -3 14 1 14 8 0 8 -3 14 -6 13 -23
-2 -32 4 -27 18 3 8 2 12 -4 9 -6 -3 -10 1 -10 9 0 9 -6 16 -12 17 -7 0 -23 2
-35 3 -12 1 -20 -1 -18 -5z m131 -226 c-2 -2 -47 -2 -99 -1 l-96 3 44 100 c24
55 45 107 45 115 1 8 26 -36 56 -99 30 -63 53 -116 50 -118z"/>
<path d="M2740 1745 l0 -265 190 0 190 0 0 41 0 40 -139 -3 -139 -3 -7 228 -7
227 -44 0 -44 0 0 -265z m66 138 c-1 -54 0 -141 4 -193 4 -54 3 -98 -2 -101
-5 -3 0 -17 11 -31 11 -14 19 -27 17 -29 -3 -2 48 -4 112 -5 87 0 117 -3 120
-13 3 -9 0 -11 -8 -6 -6 4 -46 7 -88 6 -115 -3 -175 -1 -195 5 -17 5 -18 21
-15 235 l3 229 22 0 c22 0 22 -2 19 -97z m281 -375 c-3 -8 -6 -5 -6 6 -1 11 2
17 5 13 3 -3 4 -12 1 -19z"/>
<path d="M2865 2000 c7 -12 55 -19 61 -9 3 5 -3 9 -13 10 -10 0 -26 2 -36 4
-9 2 -15 0 -12 -5z"/>
<path d="M3318 1750 c-62 -139 -115 -258 -117 -263 -1 -4 21 -7 50 -5 l53 3
22 55 22 55 134 3 133 3 24 -61 24 -60 53 0 52 0 -117 263 -118 262 -51 0 -51
0 -113 -255z m186 224 c9 -4 21 -15 27 -26 9 -16 8 -19 -3 -12 -7 4 -6 -1 4
-12 21 -25 93 -175 91 -191 0 -7 4 -13 9 -13 6 0 4 -8 -3 -17 -12 -15 -12 -16
3 -10 10 3 17 3 16 -1 -1 -4 6 -22 16 -40 9 -19 15 -40 12 -48 -3 -7 0 -16 6
-20 7 -4 8 -3 4 4 -4 7 -5 12 -1 12 6 0 25 -44 30 -72 3 -12 -2 -18 -15 -18
-23 0 -42 32 -34 55 4 9 3 15 -2 13 -5 -2 -10 2 -12 7 -2 6 -11 18 -19 28 -14
15 -35 17 -149 17 -121 0 -135 -2 -146 -19 -6 -10 -17 -17 -23 -15 -8 3 -11
-6 -10 -25 1 -18 -6 -39 -17 -51 -19 -21 -34 -27 -23 -11 3 5 1 12 -5 16 -5 3
-10 11 -10 16 0 6 5 7 11 4 6 -4 9 0 7 11 -2 12 2 18 11 16 10 -2 12 0 4 10
-10 13 8 64 19 53 3 -3 8 1 12 10 4 10 2 14 -5 9 -7 -4 -10 -1 -7 7 3 8 10 13
16 12 7 -2 9 4 5 14 -4 11 -3 14 5 9 8 -4 10 -2 6 8 -3 8 0 24 6 36 10 20 14
20 26 8 11 -11 12 -21 5 -40 -17 -45 5 -52 157 -49 75 1 83 13 57 80 -10 25
-18 54 -18 63 -1 9 -4 15 -8 12 -10 -6 -49 77 -42 89 3 6 1 7 -4 4 -6 -4 -14
0 -17 8 -4 13 -10 14 -26 5 -11 -6 -18 -15 -15 -19 2 -5 -1 -14 -9 -20 -14
-11 -31 -58 -28 -73 1 -5 -3 -8 -9 -8 -5 0 -8 -4 -5 -9 8 -13 -20 -45 -32 -37
-7 4 -12 16 -12 27 0 11 4 17 10 14 5 -3 9 2 8 12 -3 19 40 113 57 125 5 4 6
10 2 14 -4 4 -2 13 4 21 12 14 37 17 63 7z m53 -231 l30 -63 -102 0 -103 0 51
115 51 114 22 -52 c11 -28 35 -80 51 -114z"/>
<path d="M3403 1853 c-4 -10 -11 -22 -17 -26 -7 -6 -6 -7 3 -5 13 4 37 48 25
48 -2 0 -8 -8 -11 -17z"/>
<path d="M3545 1851 c-3 -5 -2 -12 3 -15 5 -3 9 1 9 9 0 17 -3 19 -12 6z"/>
<path d="M3276 1533 c-6 -14 -5 -15 5 -6 7 7 10 15 7 18 -3 3 -9 -2 -12 -12z"/>
<path d="M3976 1994 c-69 -25 -106 -74 -106 -139 0 -82 41 -115 196 -159 88
-25 114 -43 114 -78 0 -70 -136 -89 -246 -33 -27 13 -49 23 -50 22 0 -1 -6
-17 -13 -36 -15 -46 -4 -56 81 -82 121 -37 260 -11 304 57 26 39 29 113 6 150
-20 32 -82 66 -142 79 -79 17 -140 46 -146 70 -8 34 11 62 52 75 42 14 123 6
165 -16 38 -19 46 -18 52 9 2 12 8 29 11 39 6 13 -4 20 -49 37 -66 25 -170 27
-229 5z m171 -16 c22 -2 39 -6 37 -9 -2 -4 8 -10 23 -13 18 -5 23 -10 15 -18
-11 -11 -66 -2 -58 10 2 4 -14 6 -36 4 -27 -3 -43 0 -49 9 -6 10 -9 11 -9 2 0
-7 -8 -13 -17 -13 -28 0 -94 -26 -86 -33 3 -4 2 -7 -4 -7 -6 0 -13 -16 -15
-35 -3 -27 1 -40 19 -57 12 -11 20 -25 17 -29 -3 -5 2 -9 11 -9 9 0 14 -4 11
-8 -2 -4 4 -8 15 -8 10 0 19 5 19 11 1 5 9 0 19 -12 13 -16 21 -19 29 -11 8 8
18 6 37 -6 15 -10 32 -15 40 -13 7 3 28 -8 48 -24 34 -28 35 -32 32 -82 -1
-28 -4 -54 -5 -57 -1 -3 -1 -9 0 -15 1 -5 -2 -7 -6 -2 -4 4 -19 -3 -33 -16
-31 -29 -91 -52 -91 -35 0 7 -5 6 -14 -1 -11 -9 -25 -10 -52 -2 -20 6 -41 8
-45 5 -12 -7 -59 18 -52 29 3 5 -3 7 -14 3 -12 -4 -25 -1 -33 9 -9 11 -9 15
-1 15 7 0 9 6 6 13 -4 6 0 5 7 -4 12 -15 73 -35 91 -31 4 1 7 -2 7 -7 0 -14
143 -1 157 14 5 4 1 5 -7 0 -8 -5 -4 4 9 18 20 22 27 25 40 15 9 -7 13 -8 9
-4 -4 5 -2 16 5 25 11 14 10 14 -6 2 -16 -12 -17 -11 -14 10 2 13 -2 30 -10
37 -7 8 -10 19 -6 25 12 20 12 37 0 34 -7 -1 -11 4 -9 12 3 12 1 12 -15 1 -28
-22 -29 -24 -13 -18 8 3 21 -1 29 -9 12 -13 11 -14 -10 -8 -13 4 -41 15 -61
24 -21 10 -35 14 -32 10 3 -5 -2 -6 -10 -3 -9 3 -16 10 -16 15 0 4 -7 5 -17 2
-10 -4 -14 -2 -10 4 3 5 -3 9 -16 8 -12 -2 -39 7 -60 18 -32 18 -37 25 -32 47
4 16 3 20 -3 12 -17 -25 -22 13 -9 65 10 41 17 51 52 68 42 20 109 35 135 29
8 -2 34 -5 57 -6z"/>
<path d="M3940 1940 c-8 -5 -10 -10 -5 -10 6 0 17 5 25 10 8 5 11 10 5 10 -5
0 -17 -5 -25 -10z"/>
<path d="M4105 1730 c10 -11 20 -20 23 -20 3 0 -3 9 -13 20 -10 11 -20 20 -23
20 -3 0 3 -9 13 -20z"/>
<path d="M4206 1675 c-11 -8 -15 -15 -9 -15 6 0 16 7 23 15 16 19 11 19 -14 0z"/>
<path d="M2950 1970 c20 -13 53 -13 45 0 -3 6 -18 10 -33 10 -21 0 -24 -2 -12
-10z"/>
<path d="M3013 1943 c13 -3 16 -10 11 -25 -4 -14 -2 -18 5 -14 6 4 11 16 11
27 0 13 -6 19 -22 18 -18 -1 -19 -2 -5 -6z"/>
<path d="M3001 1894 c0 -11 3 -14 6 -6 3 7 2 16 -1 19 -3 4 -6 -2 -5 -13z"/>
<path d="M3781 1889 c-13 -10 -18 -19 -11 -19 12 0 45 29 39 35 -2 2 -15 -5
-28 -16z"/>
<path d="M2985 1840 c-4 -17 -5 -34 -2 -36 3 -3 8 9 12 26 4 17 5 34 2 36 -3
3 -8 -9 -12 -26z"/>
<path d="M3755 1839 c-11 -17 1 -21 15 -4 8 9 8 15 2 15 -6 0 -14 -5 -17 -11z"/>
<path d="M3735 1800 c-3 -5 -1 -10 4 -10 6 0 11 5 11 10 0 6 -2 10 -4 10 -3 0
-8 -4 -11 -10z"/>
<path d="M2960 1780 c0 -5 5 -10 10 -10 6 0 10 5 10 10 0 6 -4 10 -10 10 -5 0
-10 -4 -10 -10z"/>
<path d="M2930 1772 c0 -6 -8 -13 -17 -15 -16 -4 -16 -5 -1 -6 18 -1 34 16 24
26 -3 4 -6 1 -6 -5z"/>
<path d="M1686 1753 c-6 -14 -5 -15 5 -6 7 7 10 15 7 18 -3 3 -9 -2 -12 -12z"/>
<path d="M4276 1728 c3 -5 10 -6 15 -3 13 9 11 12 -6 12 -8 0 -12 -4 -9 -9z"/>
<path d="M2893 1713 c-7 -2 -13 -11 -13 -18 0 -7 -5 -16 -10 -18 -6 -3 -5 -4
1 -3 7 1 19 12 27 24 15 23 15 24 -5 15z"/>
<path d="M2691 1514 c0 -11 3 -14 6 -6 3 7 2 16 -1 19 -3 4 -6 -2 -5 -13z"/>
<path d="M3816 1467 c3 -10 9 -15 12 -12 3 3 0 11 -7 18 -10 9 -11 8 -5 -6z"/>
</g>
</svg>
